<?xml version="1.0" standalone="no"?><!DOCTYPE svg PUBLIC "-//W3C//DTD SVG 1.1//EN" "http://www.w3.org/Graphics/SVG/1.1/DTD/svg11.dtd"><svg t="1679301032363" class="icon" viewBox="0 0 1024 1024" version="1.1" xmlns="http://www.w3.org/2000/svg" p-id="5890" xmlns:xlink="http://www.w3.org/1999/xlink" width="19" height="19"><path d="M967.111111 369.777778v113.777778h-227.555555s165.347556-113.777778 227.555555-113.777778z m0 369.777778a170.666667 170.666667 0 0 1-170.666667 170.666666H227.555556a170.666667 170.666667 0 0 1-170.666667-170.666666V170.666667a56.888889 56.888889 0 0 1 56.888889-56.888889h796.444444a56.888889 56.888889 0 0 1 56.888889 56.888889v137.472c-11.207111 1.080889-21.191111 2.531556-28.444444 4.750222-49.265778 14.990222-291.242667 134.712889-312.888889 142.222222-21.646222 7.537778-365.226667 38.570667-369.777778 56.888889-9.102222 36.579556 13.226667 119.808 28.444444 142.222222 20.736 26.88 14.620444 20.935111 28.444445 28.444445h143.587555c7.111111-63.886222 60.728889-113.749333 126.606223-113.749334S702.577778 618.780444 709.688889 682.666667H967.111111v56.888889z m-384-113.749334a71.082667 71.082667 0 1 0 0 142.08 71.082667 71.082667 0 1 0 0-142.08z" fill="#7FFF00" p-id="5891"></path><path d="M967.111111 369.777778v113.777778h-227.555555s165.347556-113.777778 227.555555-113.777778z m0 369.777778a170.666667 170.666667 0 0 1-170.666667 170.666666H227.555556a170.666667 170.666667 0 0 1-170.666667-170.666666V170.666667a56.888889 56.888889 0 0 1 56.888889-56.888889h796.444444a56.888889 56.888889 0 0 1 56.888889 56.888889v137.472c-11.207111 1.080889-21.191111 2.531556-28.444444 4.750222-49.265778 14.990222-291.242667 134.712889-312.888889 142.222222-21.646222 7.537778-365.226667 38.570667-369.777778 56.888889-9.102222 36.579556 13.226667 119.808 28.444444 142.222222 20.736 26.88 14.620444 20.935111 28.444445 28.444445h143.587555c7.111111-63.886222 60.728889-113.749333 126.606223-113.749334S702.577778 618.780444 709.688889 682.666667H967.111111v56.888889z m-384-113.749334a71.082667 71.082667 0 1 0 0 142.08 71.082667 71.082667 0 1 0 0-142.08z" fill="#7FFF00" p-id="5892"></path></svg>