<?xml version="1.0" standalone="no"?><!DOCTYPE svg PUBLIC "-//W3C//DTD SVG 1.1//EN" "http://www.w3.org/Graphics/SVG/1.1/DTD/svg11.dtd"><svg t="1679318460572" class="icon" viewBox="0 0 1024 1024" version="1.1" xmlns="http://www.w3.org/2000/svg" p-id="11519" xmlns:xlink="http://www.w3.org/1999/xlink" width="19" height="19"><path d="M846.933333 167.466667H177.066667a70.4 70.4 0 0 0-70.4 70.4v467.626666a70.613333 70.613333 0 0 0 70.4 70.613334h241.706666a19.413333 19.413333 0 0 1 16.426667 9.386666l47.573333 82.773334a33.92 33.92 0 0 0 58.453334 0l47.573333-82.773334a19.413333 19.413333 0 0 1 16.426667-9.386666H846.933333a70.613333 70.613333 0 0 0 70.4-70.613334V237.866667a70.4 70.4 0 0 0-70.4-70.4zM874.666667 705.493333a27.946667 27.946667 0 0 1-27.733334 27.946667H605.226667a61.653333 61.653333 0 0 0-53.333334 30.72L512 833.28l-39.893333-69.12a61.653333 61.653333 0 0 0-53.333334-30.72H177.066667A27.946667 27.946667 0 0 1 149.333333 705.493333V237.866667a27.733333 27.733333 0 0 1 27.733334-27.733334h669.866666a27.733333 27.733333 0 0 1 27.733334 27.733334z" fill="#d81e06" p-id="11520"></path><path d="M341.333333 335.146667a21.333333 21.333333 0 0 0-21.333333 21.333333V533.333333l-95.786667-183.466666A28.373333 28.373333 0 0 0 192 336 27.52 27.52 0 0 0 170.666667 362.666667v234.666666a21.333333 21.333333 0 1 0 42.666666 0v-176.64l95.786667 183.466667a28.586667 28.586667 0 0 0 25.386667 15.146667A28.16 28.16 0 0 0 341.333333 618.666667a27.52 27.52 0 0 0 21.333334-26.666667v-234.666667a21.333333 21.333333 0 0 0-21.333334-22.186666zM565.76 377.813333a21.333333 21.333333 0 1 0 0-42.666666h-140.586667a21.333333 21.333333 0 0 0-21.333333 21.333333 12.373333 12.373333 0 0 0 0 3.84 15.36 15.36 0 0 0 0 4.053333v227.84a10.666667 10.666667 0 0 0 0 2.773334 14.933333 14.933333 0 0 0 0 2.986666 21.333333 21.333333 0 0 0 21.333333 21.333334h140.586667a21.333333 21.333333 0 0 0 0-42.666667h-119.253333v-77.013333h119.253333a21.333333 21.333333 0 0 0 0-42.666667h-119.253333v-79.146667zM836.48 339.2a21.333333 21.333333 0 0 0-25.386667 16.213333l-31.573333 145.28L746.666667 354.346667a17.92 17.92 0 0 0-1.28-2.986667 23.68 23.68 0 0 0-1.92-4.053333 12.373333 12.373333 0 0 0-2.773334-2.986667 17.706667 17.706667 0 0 0-2.986666-2.773333 23.68 23.68 0 0 0-4.053334-1.92 17.92 17.92 0 0 0-2.986666-1.28 13.013333 13.013333 0 0 0-4.053334 0 14.08 14.08 0 0 0-4.266666 0 17.92 17.92 0 0 0-2.986667 1.28 23.68 23.68 0 0 0-4.053333 1.92 9.386667 9.386667 0 0 0-2.986667 2.773333 18.346667 18.346667 0 0 0-2.773333 2.986667 34.773333 34.773333 0 0 0-1.92 4.053333 17.92 17.92 0 0 0-1.28 2.986667l-33.706667 145.28L640 357.76a21.333333 21.333333 0 1 0-41.6 8.746667l50.133333 235.946666a22.613333 22.613333 0 0 0 8.106667 12.373334 7.04 7.04 0 0 0 2.133333 1.28 20.053333 20.053333 0 0 0 4.906667 2.133333h1.066667a16.64 16.64 0 0 0 4.693333 0h5.333333l4.906667-2.133333 2.133333-1.28a19.413333 19.413333 0 0 0 5.12-5.12 23.253333 23.253333 0 0 0 2.986667-6.613334l34.346667-149.333333 34.56 149.333333a21.333333 21.333333 0 0 0 8.106666 12.16l2.133334 1.066667a18.773333 18.773333 0 0 0 5.12 2.346667h4.48a17.706667 17.706667 0 0 0 4.693333 0h1.066667a20.053333 20.053333 0 0 0 4.906666-2.133334 11.306667 11.306667 0 0 0 2.133334-1.28 21.333333 21.333333 0 0 0 5.12-5.546666 16.64 16.64 0 0 0 2.346666-5.973334L853.333333 364.373333a21.333333 21.333333 0 0 0-16.853333-25.173333z" fill="#d81e06" p-id="11521"></path></svg>